<svg viewBox="0 0 40 40" fill="none" xmlns="http://www.w3.org/2000/svg">
    <path d="M8.02711 28.7963L8.54224 25.5112C9.95207 26.2986 11.2535 26.7873 12.5006 26.7873C13.6122 26.7873 14.2629 26.2714 14.2629 25.4298C14.2629 24.7782 13.9104 24.2895 12.4735 23.8551L11.877 23.6379C9.62673 22.8506 8.29823 21.3031 8.29823 19.0497C8.29823 16.4434 10.3588 14.4886 13.5309 14.4886C14.9678 14.4886 16.5132 14.8687 17.923 15.4931L17.3808 18.8054C16.0794 18.1266 14.6696 17.7194 13.7478 17.7194C12.826 17.7194 12.2837 18.2352 12.2837 18.8868C12.2837 19.4841 12.6091 19.9185 13.802 20.3529L14.4527 20.5701C17.0826 21.4931 18.4111 22.9864 18.4111 25.294C18.4111 28.1719 16.2421 30.1266 12.9073 30.1266C11.1721 30.1266 9.46405 29.6108 8 28.7963H8.02711Z"
          fill="#42B52E"/>
    <path d="M26.6264 18.4526V24.0182C26.6264 25.3213 27.3042 26.0815 28.5785 26.0815C29.2021 26.0815 29.9341 25.8915 30.4763 25.7014V29.4209C29.7172 29.7467 28.6869 29.9639 27.5211 29.9639C24.0237 29.9639 22.2071 27.8734 22.2071 24.5883V18.4797H19.9026L20.4449 14.896H22.2071V12.1268L26.6264 9.87338V14.896H30.4763V18.4797H26.6264V18.4526Z"
          fill="#42B52E"/>
</svg>
